<?xml version="1.0" encoding="utf-8"?>
<!-- Generator: Adobe Illustrator 21.0.0, SVG Export Plug-In . SVG Version: 6.00 Build 0)  -->
<svg version="1.1" id="图层_1" xmlns="http://www.w3.org/2000/svg" xmlns:xlink="http://www.w3.org/1999/xlink" x="0px" y="0px"
	 viewBox="0 0 64 64" style="enable-background:new 0 0 64 64;" xml:space="preserve">
<style type="text/css">
	.st0{fill:#FFFFFF;stroke:#747487;stroke-width:3;stroke-miterlimit:10;}
</style>
<path class="st0" d="M61.8,35.7v-7.5c0-1-0.4-1.9-1.1-2.6c-0.7-0.7-1.6-1.1-2.6-1.1H39.5V5.9c0-1-0.4-1.9-1.1-2.6
	c-0.7-0.7-1.6-1.1-2.6-1.1h-7.5c-1,0-1.9,0.4-2.6,1.1s-1.1,1.6-1.1,2.6v18.6H6c-1,0-1.9,0.4-2.6,1.1c-0.7,0.7-1.1,1.6-1.1,2.6v7.5
	c0,1,0.4,1.9,1.1,2.6C4.1,39.1,5,39.4,6,39.4h18.6v18.6c0,1,0.4,1.9,1.1,2.6c0.7,0.7,1.6,1.1,2.6,1.1h7.5c1,0,1.9-0.4,2.6-1.1
	c0.7-0.7,1.1-1.6,1.1-2.6V39.5h18.6c1,0,1.9-0.4,2.6-1.1C61.5,37.6,61.8,36.7,61.8,35.7z"/>
</svg>
